<svg width="146" height="147" viewBox="0 0 146 147" fill="none" xmlns="http://www.w3.org/2000/svg">
<path d="M2.59204 61.0369C15.3948 61.4219 28.1976 61.7921 41.0152 62.1771C64.9631 62.8878 88.8962 63.5986 112.859 64.2946C121.606 64.5611 132.056 63.2876 140.566 65.4495C140.921 65.5384 141.321 65.6569 141.661 65.5236C142.313 65.3015 143.393 65.9086 143.438 65.2126C143.704 59.5117 140.566 51.9747 138.509 46.7476C129.688 24.2104 106.346 4.5756 82.0434 2.33966C60.2416 0.355442 37.1078 7.04847 21.9368 22.8482C16.6825 28.3121 12.4791 34.7238 9.26725 41.5797C8.468 43.253 2.63644 61.0369 2.59204 61.0369Z" fill="#81C6EE"/>
<path d="M26.836 33.8058C27.3244 34.1167 35.9829 30.5925 36.575 30.6221C47.8829 31.1552 40.8672 36.5452 53.1816 36.9302C77.1295 37.6409 57.0298 32.7248 73 33.2579C81.7474 33.554 81.3033 31.6587 89.8139 33.8206C90.1691 33.9094 103.401 47.7397 106.494 41.5945C110.017 34.6202 121.177 39.6992 122.035 40.173C131.656 45.4297 138.228 46.8512 136.17 41.5945C127.349 19.0574 106.346 4.59041 82.0286 2.36927C60.2268 0.38506 37.0782 7.06328 21.9221 22.863C16.6677 28.327 17.541 29.0081 13.8408 33.8058C12.8343 35.094 24.8082 32.5323 26.836 33.8058Z" fill="#6DB0E2"/>
<path d="M62.7578 62.3251C63.5422 61.6736 142.683 61.6144 142.091 60.8148C141.513 60.03 140.374 52.7446 139.634 51.7525C139.382 51.412 125.854 51.871 117.876 51.9598C113.333 52.0043 108.922 48.3024 106.805 49.176C104.896 49.9608 96.0894 53.4554 88.7482 51.9598C84.6335 51.1158 77.9731 48.9539 69.211 49.1908C64.7411 49.3241 59.7088 50.0645 54.1732 51.9598C52.4415 52.5669 49.7182 57.3942 45.7367 56.3725C41.178 55.2175 35.2873 48.1247 33.4816 48.6874C29.7665 49.7979 28.02 45.5926 21.1376 43.1789C18.2366 42.172 14.4624 41.4909 9.23766 41.6241C8.3644 41.6538 5.56703 49.9312 5.62623 50.5827C6.05546 53.9292 7.62435 53.5442 8.17199 53.9885C8.73442 54.4327 26.1699 61.3626 26.5695 61.3034" fill="#B5DFEE"/>
<path d="M45.8403 99.507C55.4165 96.1605 64.9927 93.273 75.2349 92.3845C79.024 92.1624 82.591 91.0518 86.1432 89.7044C96.8295 85.2473 107.072 80.1239 117.995 76.111C119.771 75.6668 121.784 75.6668 123.338 74.3341C123.782 73.8899 124.892 74.112 125.795 73.6677C130.635 70.3657 138.02 68.7516 143.275 67.2413C143.275 60.4446 135.771 62.5028 135.771 62.5028C135.771 62.5028 126.816 58.49 113.939 63.8799C111.246 65.0201 108.285 61.5403 105.34 61.5848C102.646 61.6292 98.2799 60.2965 95.601 60.1632C92.8332 60.0004 88.1561 62.9026 85.3736 63.4653C82.1469 64.1169 81.8509 64.3094 79.912 66.9599C79.2904 65.7753 76.7298 67.2561 76.1082 66.0715C75.901 65.6865 75.6789 65.2867 75.3089 65.0942C74.1544 64.4871 73.1332 66.1159 72.926 67.4041C72.7188 68.6924 68.8705 63.8207 67.5828 63.6134C66.976 63.5246 63.4682 69.6697 62.8465 69.6253C60.212 69.4476 51.8051 73.6826 50.2806 71.6687C47.3204 74.8968 35.7609 67.8336 32.0606 70.1732C20.6639 77.3252 16.6973 58.7417 5.8038 65.879C-0.294176 69.8918 3.30245 87.809 7.2987 98.0114C7.46151 98.4112 11.9758 107.814 12.3162 108.081C16.12 107.429 26.3179 104.63 29.8257 103.564C35.1392 102.187 40.4824 101.299 45.8403 99.507Z" fill="#31AD6B"/>
<path d="M129.747 71.3281C128.859 71.7724 120.422 70.3508 119.963 70.7951C118.409 72.1278 119.741 75.4447 117.965 75.9037C107.057 79.9165 92.2855 78.2581 81.5993 82.7152C78.0323 84.0479 78.9943 91.9403 75.2053 92.1624C64.9631 93.0509 57.9622 92.0884 48.386 95.4349C43.0429 97.2118 35.1096 101.965 29.7665 103.298C24.9266 104.764 17.1117 107.325 12.3014 107.814L19.0062 119.216L29.2632 127.804L65.5699 143.737C98.3243 145.292 117.077 130.84 130.605 112.538L136.97 103.579L143.408 74.7635L143.275 67.2413C138.006 68.7516 134.587 68.0261 129.747 71.3281Z" fill="#63B445"/>
<path d="M58.7023 82.419C68.5745 80.1239 64.223 76.3331 74.5097 76.5404C78.2987 76.7181 83.701 75.6076 87.3865 74.6747C98.502 71.3726 104.408 75.9037 115.671 73.0755C117.492 72.8237 118.853 69.107 120.555 67.952C121.044 67.5522 126.342 69.9955 127.275 69.6401C132.426 66.8711 138.035 66.1455 143.423 65.2126C141.499 58.9786 142.416 58.0902 135.578 56.4317C127.586 56.1356 127.734 55.6469 114.383 59.645C111.571 60.489 109.011 56.6983 106.08 56.4614C103.401 56.2096 102.025 60.8888 99.3752 60.4446C96.637 60.0004 88.8666 55.9283 86.0544 56.1948C82.7834 56.5058 82.4726 56.6687 80.2672 59.0971C79.7344 57.7644 76.6114 59.26 76.5078 57.4535C75.3089 55.41 73.6808 57.2758 73.2516 58.7861C72.9112 60.03 69.5958 54.7733 68.3229 54.4623C67.716 54.2995 63.5866 60.0596 62.9798 59.9411C60.3748 59.4673 51.583 62.799 50.2658 60.6519C46.9652 63.5542 36.2345 55.3064 32.2974 57.2165C20.1755 63.1248 19.4947 43.6232 7.93514 49.5758C4.32371 51.4268 4.1461 58.5936 2.59201 65.6124C1.34873 71.3134 2.62161 75.6372 2.59201 82.2265C2.59201 83.7369 14.714 77.2956 15.0396 77.5918C18.8878 77.34 27.798 80.6273 31.4094 79.9314C36.8117 79.1762 53.1815 83.6185 58.7023 82.419Z" fill="#6CBE9B"/>
<path d="M26.4807 126.96C51.9975 116.165 77.5143 105.371 103.031 94.576C111.32 91.0666 119.608 87.5573 127.897 84.0627C132.218 82.2413 137.606 81.1752 143.275 78.1396C142.105 97.9966 135.771 112.464 116.026 128.263C91.2791 148.046 64.149 143.145 64.149 143.145L46.4028 139.073L33.5556 132.321C33.5408 132.306 26.4807 126.96 26.4807 126.96Z" fill="#FBF3AA" stroke="#1E2247" stroke-width="4" stroke-miterlimit="10"/>
<path d="M144 73.0435C144 112.258 112.222 144.029 73 144.029C71.7567 144.029 66.902 143.777 65.7327 143.644C29.9145 140.018 2 109.772 2 73.0139C2.0148 33.8144 33.7924 2.02869 73.0148 2.02869C112.237 2.02869 144 33.8292 144 73.0435Z" stroke="#1E2247" stroke-width="4" stroke-miterlimit="10"/>
<path d="M23.0913 12.7642C25.1042 12.7642 26.9691 13.4157 28.8341 14.1561C29.1301 14.2598 29.4261 14.5263 29.7813 14.4078C30.4029 15.0594 31.3946 15.1038 32.0162 15.7997C33.0375 17.014 34.2068 18.0357 35.0948 19.3536C35.0948 20.2272 36.0421 20.7455 35.9681 21.6635C36.0717 21.6635 36.1457 21.6635 36.2641 21.6635C36.9894 23.0851 37.3298 24.6695 37.537 26.2391C37.5074 27.557 37.463 28.8748 37.463 30.1927C37.4334 30.2223 37.4334 30.2223 37.4334 30.2964C36.8413 30.6665 37.2114 31.244 37.0634 31.7623C36.0421 32.9765 35.8497 34.5758 35.0948 35.8936C34.9172 35.9232 34.8432 36.0417 34.7248 36.1898C33.6295 37.5373 32.4899 38.8551 31.069 39.8472C30.1217 40.5432 28.9821 40.943 27.9312 41.3872C24.823 42.6607 21.6704 42.6015 18.5622 41.8315C15.9276 41.1799 13.5595 39.788 11.7982 37.6261C12.4198 37.3003 11.9018 37.0338 11.7686 36.7821C10.1553 34.5461 8.88241 32.2065 8.48279 29.4671C8.51239 29.3931 8.51239 29.2894 8.55679 29.2154C10.0961 28.8156 10.1701 28.7712 10.1701 27.2016C10.1701 26.9054 10.1405 26.6093 10.1405 26.2835C10.3921 25.2174 10.7917 24.166 10.8657 23.0703C11.0137 21.3822 11.4134 20.0347 13.1747 19.4128C13.4707 19.3091 13.6483 19.0426 13.8259 18.8205C14.5216 17.8284 15.4392 16.9844 16.4161 16.4365C18.2514 15.4444 20.2199 14.6003 22.3809 14.5411C22.9285 14.5115 23.1505 14.2894 23.1505 13.7415C23.0469 13.3861 23.0913 13.09 23.0913 12.7642Z" fill="#FCAC03"/>
<path d="M23.0913 12.7642C23.0913 13.0603 23.0617 13.3565 23.0617 13.6822C23.0617 14.2301 22.8397 14.4522 22.2921 14.4819C20.1312 14.5559 18.1626 15.3999 16.3273 16.3772C15.3357 16.8955 14.4328 17.7691 13.7372 18.7612C13.5595 19.013 13.3671 19.2795 13.0859 19.3536C11.3246 19.9459 10.8954 21.323 10.777 23.011C10.703 24.1068 10.3033 25.1729 10.0517 26.2243C9.6077 26.1946 9.68171 26.5204 9.68171 26.7721C9.6521 27.6162 9.6077 28.3862 8.61604 28.6675C8.54204 28.6971 8.54204 28.9637 8.46803 29.1117C8.43843 29.1858 8.43843 29.2894 8.39403 29.3635C7.15075 24.3881 9.5633 18.4947 14.0924 15.3555C16.8009 13.5342 19.8055 12.5865 23.0913 12.7642Z" fill="#F7F9F9"/>
<path d="M8.42358 29.1562C8.45319 29.0081 8.45319 28.712 8.57159 28.712C9.56325 28.4158 9.63726 27.6162 9.63726 26.8166C9.63726 26.5649 9.56325 26.2243 10.0073 26.2687C10.0073 26.5649 10.0369 26.861 10.0369 27.1868C10.0369 28.712 9.99248 28.7564 8.42358 29.1562Z" fill="#F6A8A0"/>
<path d="M37.9366 27.5421C37.9366 35.8492 31.2022 42.5718 22.9137 42.5718C22.6621 42.5718 21.6408 42.5422 21.3744 42.4978C13.8111 41.7278 7.87598 35.3309 7.87598 27.5273C7.87598 19.2203 14.6104 12.4977 22.8989 12.4977C31.2022 12.5125 37.9366 19.2499 37.9366 27.5421Z" stroke="#1E2346" stroke-width="2" stroke-miterlimit="10"/>
<path d="M66.9464 75.267L89.4142 69.3587C91.1755 68.8997 94.8165 67.8484 96.5334 68.3074C101.862 69.6549 114.561 71.2393 117.995 71.876C119.046 72.0833 121.059 72.4683 121.355 73.5937C121.473 74.0083 118.927 74.6006 118.128 74.8968C114.147 76.2443 110.121 77.5029 106.139 78.7616C102.069 80.0646 97.9691 81.1456 93.9877 82.6559C88.5409 84.7142 82.8722 86.0913 77.6031 88.4901C75.5013 89.4082 73.4588 88.5345 71.4015 88.3272C69.8918 88.1644 68.3377 88.1199 66.828 87.9126C64.445 87.5424 62.0473 87.0686 59.6644 86.8169C53.2556 86.1505 46.832 85.3953 40.3344 84.6846C39.9643 84.6402 39.8311 84.1811 40.0827 83.9294C41.0892 83.0113 42.3473 82.4634 43.6942 82.0784C49.2741 80.4496 54.8393 78.8948 60.4192 77.2512C62.6393 76.6293 64.8151 75.9481 67.05 75.2818M83.6714 68.337C76.7594 69.9362 69.8326 71.5206 62.965 73.2828C57.7698 74.6302 52.5747 76.0518 47.4092 77.5177C43.3833 78.6875 37.7738 79.6204 35.376 83.5592C35.1244 83.9294 34.9172 84.3144 34.784 84.729C34.5324 85.4398 33.9108 85.7359 33.3631 86.1061C31.735 87.2315 30.7286 88.7863 30.4325 90.7261C30.1365 92.8584 30.0921 95.0055 30.3437 97.1378C30.5065 98.4852 31.0986 99.8623 32.3123 100.573C33.1559 101.077 33.6887 101.995 33.822 102.957C34.4436 108.495 34.0292 114.078 34.3252 119.601C34.3252 119.853 34.3696 120.149 34.488 120.312C34.6064 120.474 34.8284 120.608 35.0356 120.682C36.5453 121.348 38.055 122.103 39.6535 122.607C41.252 123.11 42.9689 123.11 44.597 123.406C45.9735 123.658 47.4092 123.569 48.7857 124.073C48.9485 124.162 49.2889 124.872 49.4073 125.08C49.6589 125.376 49.9105 125.672 50.251 125.924C50.8726 126.427 51.5534 126.768 52.3083 127.049C53.9808 127.671 55.8753 127.597 57.459 126.797C58.2583 126.427 58.9687 125.835 59.842 125.702C60.7152 125.539 61.6921 125.864 62.5653 125.998C63.5718 126.161 64.6227 126.338 65.6291 126.457C67.8049 126.753 69.9954 127.005 72.2155 127.079C74.2285 127.168 76.3302 126.99 78.1211 126.027C78.9203 125.568 79.2904 125.731 79.838 126.531C82.1469 129.848 86.7944 130.055 89.6066 127.079C91.0275 125.613 91.9156 123.851 92.3744 121.881C92.5372 121.215 92.8332 120.83 93.4992 120.578C96.7258 119.408 99.9525 118.105 103.135 116.891C103.593 116.728 103.934 116.639 104.393 117.054C108.581 120.948 113.747 119.941 116.219 114.744C116.633 113.87 116.929 112.863 117.225 111.931C117.27 111.842 117.27 111.812 117.225 111.723C117.107 110.968 117.477 110.627 118.187 110.376C119.741 109.828 121.295 109.162 122.835 108.525C126.979 106.852 126.313 99.6698 125.898 95.3608C125.854 94.6945 125.78 94.0578 125.78 93.5543C125.484 86.6392 125.573 82.73 125.691 75.8148C125.691 75.1929 125.573 73.0903 125.232 72.5424C123.812 70.2768 120.496 70.1584 118.187 69.6549C115.049 68.8553 110.224 68.5295 106.998 68.1445C103.223 67.6855 100.959 67.0191 97.6435 66.5453C95.1718 66.2047 91.7675 66.4565 89.3846 67.0043C86.824 67.6263 86.3948 67.7151 83.6714 68.337ZM42.5989 89.5563C42.6433 87.883 43.4425 89.9265 43.8126 89.4674C44.9374 88.8455 46.0771 89.2157 47.202 89.3786C47.202 89.3786 47.202 89.3786 47.2464 89.3786C47.868 89.423 48.5045 89.497 49.1261 89.5415C49.1705 89.5415 49.2149 89.5415 49.2149 89.5415C49.8809 89.4526 50.5174 89.423 51.0206 89.9117C51.1094 90.0005 51.1834 90.0301 51.3166 90.0301C52.5747 90.0745 53.8328 90.119 55.1353 90.193H55.1797C55.6829 90.2818 56.2305 90.3559 56.7782 90.4447C60.9668 90.9482 65.1259 91.4961 69.3145 91.9995C70.1582 92.0884 71.0315 92.2068 71.9195 92.3401C72.5856 92.4289 72.8816 92.7991 72.7632 93.4655C72.7632 93.5099 72.7632 93.5543 72.7632 93.5543C73.0148 96.2345 72.3043 98.9295 72.4671 101.61C72.5856 103.283 72.6744 104.927 72.7188 106.6C72.7632 107.192 72.8076 107.947 71.9639 107.858C69.8326 107.651 67.6865 107.311 65.5107 107.014C64.1638 106.852 62.8317 106.807 61.4849 106.392C61.4405 106.392 61.3961 106.392 61.3665 106.392C58.9391 106.481 56.5858 105.845 54.1584 105.637C51.139 105.341 48.1196 104.838 45.1447 104.379C45.1003 104.379 45.0262 104.379 44.9818 104.379C44.2714 104.586 43.561 104.586 42.8801 104.171C42.6729 104.171 42.5841 104.083 42.6729 103.875V100.736C42.6285 97.0341 42.5101 93.2878 42.5989 89.5563ZM35.1244 97.7449C34.1624 97.197 33.9108 96.1901 34.0736 95.1387C34.2364 94.2651 33.9108 93.3766 34.2808 92.503C34.3252 91.2443 35.08 90.4003 35.9533 89.6155C36.1605 89.4082 36.6193 89.112 36.7081 89.2009C37.833 89.9117 38.5878 88.8307 39.5203 88.6974C40.1863 88.579 39.8903 93.0212 39.8903 93.4359C39.8459 96.6195 39.8015 99.8475 39.8015 103.046C39.8015 103.505 40.1419 104.008 39.2983 104.053C38.4546 104.097 38.425 103.594 38.425 102.957C38.425 101.402 38.425 99.8475 38.425 98.3372C37.8774 98.041 37.759 97.967 37.167 97.6708C36.6045 98.0262 35.8793 98.1595 35.1244 97.7449ZM73.148 121.778C73.0592 122.696 72.5264 122.829 71.7271 122.829C68.8705 122.666 66.0287 122.163 63.2166 121.659C57.089 120.815 51.0206 120.03 44.893 119.186C43.4277 118.979 42.0069 118.89 40.5712 118.475C39.0615 118.016 38.351 117.01 38.351 115.499C38.351 113.396 38.3954 111.309 38.3954 109.206C38.3954 108.451 38.4842 108.081 39.4463 108.155C47.3648 108.777 55.1649 110.08 63.0538 111.012C63.3498 111.057 63.6458 111.131 63.927 111.22C63.9714 111.22 63.9714 111.22 64.0158 111.22C66.9464 111.471 69.8918 111.679 72.778 112.227C73.1924 112.182 73.2368 112.434 73.148 112.73C73.5772 115.736 73.3256 118.757 73.148 121.778ZM114.901 80.7162C117.077 80.0498 119.268 79.339 121.443 78.6135C121.606 78.4506 121.739 78.4506 121.784 78.7319C121.784 79.3539 121.828 79.9906 121.828 80.6125C121.828 83.2482 121.784 85.8988 121.784 88.5346C121.784 89.0824 121.532 89.4082 121.073 89.5859C119.06 90.3411 117.092 91.0518 115.079 91.807C114.783 91.8959 114.457 92.0588 114.324 91.5997C114.324 88.3272 114.28 85.0548 114.235 81.7379C114.235 81.2936 114.354 80.879 114.901 80.7162ZM101.788 85.0252C104.422 84.1515 107.116 83.2186 109.751 82.345C109.839 82.3006 109.958 82.2265 110.002 82.1377C110.121 81.9304 110.254 81.9304 110.417 82.2265L110.461 82.2709C110.964 82.6115 110.757 83.115 110.757 83.574C110.757 86.343 110.757 89.0676 110.713 91.8366C110.713 92.9324 110.461 93.7616 109.114 94.1022C106.435 94.7241 104.082 96.3678 101.314 96.6195C101.151 96.9601 100.974 97.1229 100.811 96.6195C100.767 93.1841 100.766 89.7488 100.722 86.2542C100.692 85.5286 101.107 85.2473 101.788 85.0252ZM89.3402 89.0972C91.5159 88.3421 93.7065 87.6313 95.8822 86.8761C95.9266 86.8761 96.0006 86.8317 96.045 86.7873C96.7554 86.1653 97.3031 86.0765 97.3031 87.2907C97.3031 90.652 97.3031 93.9541 97.3031 97.3154C97.3031 98.0262 97.0515 98.4852 96.3854 98.7814C94.2837 99.6254 92.2412 100.41 90.1838 101.254C89.5622 101.506 89.1774 101.506 89.133 100.706C89.133 100.247 88.7926 99.7883 88.9258 99.2848C88.9702 98.9443 89.0146 98.4852 89.0442 98.1595C88.7482 95.272 88.5409 92.3253 89.0886 89.4378C89.0886 89.2749 89.207 89.1417 89.3402 89.0972ZM83.2126 90.8149C85.2699 90.1042 85.2699 90.0597 85.2255 92.3253C85.2255 95.0055 85.1367 97.656 85.2699 100.336C85.3587 101.965 85.1071 103.15 83.553 103.475C83.257 103.52 83.0054 103.313 83.0498 103.016C83.3902 99.8772 83.1386 96.7231 83.0498 93.5839C83.0498 93.2137 82.8426 92.7399 82.591 92.4586C81.9101 91.5257 82.2505 91.1555 83.2126 90.8149ZM76.9222 105.119C75.7085 104.956 75.2497 103.86 75.4569 102.646C75.4569 100.928 75.5013 99.2108 75.4569 97.4931C75.4125 95.8939 76.2118 94.8574 77.3366 93.9245C78.2987 93.1693 78.8019 93.421 79.0092 94.5464C79.3496 97.3599 79.3792 100.129 79.0092 102.898C78.8907 104.068 78.2691 105.282 76.9222 105.119ZM86.8536 123.791C85.8916 124.413 84.8407 123.91 84.4263 122.533C84.2635 121.985 84.2191 121.363 84.3375 120.859C84.3375 120.815 84.3375 120.771 84.3375 120.697C84.1747 119.231 84.7519 118.135 85.5956 117.128C86.4392 116.165 87.2681 116.254 88.0229 117.246C89.2514 119.038 88.6149 122.607 86.8536 123.791ZM111.882 113.767C110.964 114.611 109.825 114.27 109.321 112.967C109.114 112.419 109.114 111.753 109.114 111.59C109.159 109.739 109.455 108.451 110.535 107.473C111.453 106.674 112.252 106.852 112.844 107.844C113.821 109.487 113.362 112.464 111.882 113.767ZM120.644 104.497C120.141 104.793 119.638 105.045 119.09 105.297C118.424 105.593 117.743 106.17 117.077 106.096C116.322 106.052 116.411 104.971 116.026 104.379C114.013 101.195 110.239 100.899 107.353 103.786C105.754 105.386 104.718 107.355 104.541 109.621C104.422 111.294 103.697 112.005 102.158 112.552C99.1384 113.604 96.2078 114.818 93.2328 115.988C92.6408 116.24 92.4336 116.328 92.182 115.529C90.7167 110.909 85.936 109.872 82.5466 113.352C81.1997 114.729 80.2376 116.462 80.1192 118.342C80.0008 119.971 79.0684 120.726 77.8547 121.452C77.5587 121.615 77.1886 121.407 77.1886 121.082C77.1886 117.602 77.1886 114.241 77.1886 110.894C77.1886 109.976 77.8991 109.976 78.4467 109.769C84.8259 107.414 91.2347 105.119 97.5991 102.765C102.72 100.884 107.782 98.9887 112.814 96.886C115.538 95.7903 118.35 95.0055 121.236 94.0726C121.532 93.9837 121.784 94.191 121.784 94.4872C121.784 97.3006 121.784 99.9808 121.784 102.661C121.828 103.535 121.325 104.068 120.644 104.497Z" fill="#071848"/>
<path d="M121.532 73.5789C121.118 71.8612 118.306 71.8612 116.959 71.6095C116.041 71.1505 114.487 71.106 113.436 70.8987C108.818 70.0251 104.126 69.3439 99.4788 68.6776C97.2587 68.3815 95.2901 68.0557 93.0256 68.4259C90.7167 68.8405 88.5409 69.6401 86.2764 70.2324C81.7029 71.4466 77.011 72.4535 72.4819 73.801C71.1351 74.1712 69.803 74.6006 68.4561 74.9708C60.7892 77.2364 53.1075 79.4131 45.3963 81.6342C43.6349 82.1377 40.66 82.804 39.7423 84.5661C42.9689 85.2769 46.4915 85.3657 49.8069 85.7359C53.1667 86.1061 56.5117 86.4911 59.8716 86.8317C62.2989 87.0834 64.6523 87.5425 67.0352 87.9274C68.5449 88.1792 70.099 88.1792 71.6087 88.3421C73.666 88.5494 75.7233 89.4674 77.8103 88.5049C83.1386 86.1209 88.7926 84.6846 94.1949 82.6708C98.1763 81.1604 102.291 80.0646 106.346 78.7764C110.328 77.5177 114.354 76.2147 118.335 74.9116C119.223 74.6303 121.606 74.0083 121.532 73.5789Z" fill="#F7F9F9"/>
<path d="M79.4828 74.9708C77.5143 75.4743 75.5013 75.9777 73.5328 76.57C69.2554 77.8731 64.9039 79.0429 60.582 80.0942C60.2416 80.1831 58.6135 80.8494 58.6135 81.19C58.6135 81.5602 59.4867 81.9008 59.8716 81.9896C62.5949 82.4486 65.5255 82.1081 68.2489 82.5819C70.4246 82.9521 73.2368 83.3815 75.4569 83.3371C77.9731 83.2927 80.282 82.3302 82.6206 81.6194C85.4772 80.7458 88.3189 79.9017 91.1755 79.0133C96.7999 77.2956 102.454 75.5779 108.063 73.8899C108.567 73.727 109.114 73.5493 109.277 73.0458C107.101 72.6756 104.955 72.3351 102.779 71.9205C100.678 71.5058 98.6648 70.7507 96.5334 70.6618C94.8609 70.573 93.3512 71.1208 91.7971 71.6243C89.9914 72.2462 88.0673 72.7497 86.2172 73.2531C84.0119 73.8751 81.7473 74.4229 79.4828 74.9708Z" fill="#071848"/>
<path d="M121.784 93.8357C121.784 96.8564 121.784 99.7143 121.784 102.602C121.784 103.52 121.281 104.068 120.615 104.482C120.111 104.778 119.608 105.03 119.06 105.282C118.394 105.578 117.714 106.156 117.048 106.082C116.293 106.037 116.381 104.956 115.997 104.364C113.984 101.18 110.209 100.884 107.323 103.772C105.725 105.371 104.689 107.34 104.511 109.606C104.393 111.279 103.667 111.99 102.128 112.538C99.1088 113.589 96.1782 114.803 93.2032 115.973C92.6112 116.225 92.404 116.314 92.1524 115.514C90.6871 110.894 85.9064 109.857 82.517 113.337C81.1701 114.714 80.208 116.447 80.0896 118.327C79.9268 120.208 78.7427 120.934 77.159 121.807C77.159 118.031 77.159 114.463 77.159 110.909C77.159 109.991 77.8695 109.991 78.4171 109.783C84.7963 107.429 91.2051 105.134 97.5695 102.779C102.691 100.899 107.753 99.0035 112.785 96.9008C115.656 95.6422 118.676 94.8426 121.784 93.8357Z" fill="#AED6FA"/>
<path d="M61.3665 106.467C58.8947 106.555 56.5414 105.919 54.114 105.711C51.0502 105.415 48.0308 104.867 45.0114 104.453C46.7728 99.5514 48.9929 94.887 51.139 90.1042C52.4859 90.1486 53.818 90.193 55.1205 90.267C54.4988 90.4299 54.2028 90.9334 53.9956 91.4368C52.8707 93.9097 51.7311 96.427 50.6358 98.8999C50.2658 99.6995 49.3777 100.78 50.473 101.328C51.8495 102.039 52.1455 100.484 52.5303 99.655C53.9068 96.5899 55.6385 93.7024 56.7634 90.5188C60.952 91.0222 65.1111 91.5701 69.2997 92.0736C69.1369 93.1249 68.5893 93.9541 67.9529 94.7982C66.3544 96.9008 65.3183 99.3293 64.0158 101.639C63.0538 103.194 62.2545 104.823 61.3665 106.467Z" fill="#0BCFF7"/>
<path d="M63.1722 121.644C57.0446 120.8 50.9762 120.015 44.8486 119.171C43.3834 118.964 41.9625 118.875 40.5268 118.461C39.0171 118.002 38.3066 116.995 38.3066 115.484C38.3066 113.382 38.351 111.294 38.351 109.191C38.351 108.436 38.4398 108.066 39.4019 108.14C47.3204 108.762 55.1205 110.065 63.0094 110.998C63.3054 111.042 63.631 111.116 63.927 111.205C63.927 112.626 63.927 114.092 63.927 115.529C63.927 117.128 63.927 118.712 63.927 120.312C63.8826 120.934 63.8826 121.481 63.1722 121.644ZM46.6544 114.018C46.6988 112.301 45.1447 110.657 43.4278 110.657C41.7997 110.657 40.364 112.079 40.3196 113.767C40.2752 115.484 41.7405 116.995 43.4574 117.039C45.1447 117.039 46.61 115.647 46.6544 114.018Z" fill="#F7F9F9"/>
<path d="M61.3665 106.467C62.2101 104.867 62.9946 103.194 63.927 101.639C65.2295 99.3293 66.31 96.9453 67.8641 94.7982C68.4857 93.9541 69.0333 93.1249 69.2109 92.0736C70.0546 92.1624 70.9278 92.2809 71.8159 92.4141C72.4819 92.503 72.8224 92.8732 72.6596 93.5839C72.2895 93.9985 72.3635 94.5464 72.3635 95.0943C72.3635 96.1901 72.0675 97.197 71.6087 98.2039C70.7354 100.262 69.507 102.098 68.5893 104.157C67.9973 105.415 67.79 107.518 65.4515 107.133C64.1046 106.926 62.7133 106.881 61.3665 106.467Z" fill="#03ADFB"/>
<path d="M100.737 96.6491C100.737 93.2138 100.692 89.7784 100.648 86.2838C100.648 85.4842 101.063 85.1881 101.743 84.9807C104.467 84.0627 107.19 83.1298 109.869 82.2562C110.032 82.2562 110.209 82.2117 110.372 82.2117L110.417 82.2562C110.165 83.5592 109.41 84.6106 108.655 85.6915C106.184 89.3342 103.712 92.9916 101.24 96.5899C101.077 96.6491 100.9 96.6491 100.737 96.6491Z" fill="#03ADFB"/>
<path d="M95.9118 86.8317C96.6222 86.1209 97.2143 86.0321 97.2143 87.2907C97.2143 90.652 97.2143 93.9541 97.2143 97.3154C97.2143 98.0262 96.9627 98.4852 96.2966 98.7814C94.1949 99.6254 92.1523 100.41 90.095 101.254C89.4734 101.506 89.0886 101.506 89.0442 100.706C88.9998 100.114 88.5409 99.5366 89.0442 98.9443C90.7167 96.5899 92.404 94.2503 93.9877 91.8218C94.9053 90.4743 95.749 89.1417 96.5482 87.7498C97.0071 86.965 96.6666 86.7132 95.9118 86.8317Z" fill="#076D9C"/>
<path d="M64.223 126.175C66.4876 126.634 65.3183 126.472 66.902 126.723C67.568 126.842 68.3673 126.768 69.0777 126.842C69.9954 126.931 71.2978 127.049 72.2599 127.138C74.184 127.345 75.7381 127.093 77.4994 126.338C77.8695 126.175 78.5059 125.835 78.9203 125.835C79.838 125.835 80.2228 126.886 80.8444 127.553C82.4429 129.181 85.1219 129.566 87.2532 128.678C89.3846 127.804 90.9831 125.864 91.7379 123.688C92.0339 122.77 92.2411 121.763 92.9516 121.082C93.4104 120.623 94.0469 120.371 94.6685 120.119C97.2291 119.157 99.7896 118.15 102.335 117.187C102.839 116.98 103.386 116.817 103.934 116.847C104.778 116.965 105.399 117.691 106.065 118.194C108.123 119.793 111.186 119.616 113.318 118.194C115.286 116.891 116.544 114.714 117.181 112.449C117.27 112.079 117.64 111.856 118.024 111.901C120.911 112.241 123.723 112.775 126.535 113.574C127.201 113.737 127.29 114.67 126.698 114.996L99.4344 130.322C96.4594 131.995 90.9683 134.808 89.5474 135.563C89.3402 135.652 87.3716 135.86 87.1644 135.86C85.4919 135.608 79.1127 134.69 75.1313 133.935C65.0667 132.128 54.928 131.047 44.7746 129.996C43.4721 129.877 43.1021 128.145 44.227 127.478L45.5295 126.679C45.8699 126.472 48.9189 124.117 48.9189 124.117C48.9189 124.117 49.8809 125.539 50.3842 125.968C52.5155 127.73 54.9132 128.1 57.4738 126.812C58.1398 126.472 58.8207 126.013 59.5311 125.761C60.3748 125.465 60.878 125.598 61.6329 125.879" fill="#6FB0E8"/>
<path d="M101.285 96.6491C103.756 93.0065 106.228 89.3934 108.7 85.7507C109.41 84.6994 110.165 83.6185 110.461 82.3154C110.964 82.656 110.757 83.1594 110.757 83.6184C110.757 86.3875 110.757 89.1121 110.713 91.8811C110.713 92.9768 110.461 93.8061 109.114 94.1466C106.391 94.7241 104.052 96.353 101.285 96.6491Z" fill="#076D9C"/>
<path d="M114.28 91.6145C114.28 88.3421 114.235 85.0696 114.191 81.7527C114.191 81.2492 114.28 80.8346 114.857 80.6569C117.033 79.9906 119.223 79.2798 121.399 78.5542C121.517 78.5987 121.651 78.6431 121.739 78.6727C121.739 79.2946 121.784 79.9313 121.784 80.5533C120.659 82.7744 119.149 84.7882 117.714 86.8021C116.589 88.5197 115.863 90.4003 114.28 91.6145Z" fill="#03ADFB"/>
<path d="M95.9118 86.8317C96.6666 86.7132 97.0367 86.9501 96.5778 87.7053C95.7342 89.0824 94.9053 90.4743 94.0173 91.7774C92.3892 94.1614 90.7019 96.5158 89.0738 98.8999C89.0294 98.6037 89.0294 98.3076 88.985 97.9818C89.0294 95.0499 89.0738 92.1032 89.1034 89.1713C91.3531 88.3865 93.6028 87.5869 95.9118 86.8317Z" fill="#03ADFB"/>
<path d="M63.1722 121.644C63.8826 121.481 63.927 120.934 63.927 120.341C63.927 118.742 63.927 117.158 63.927 115.558C64.4747 115.188 64.9779 115.514 65.4811 115.603C65.0223 117.705 65.5699 119.216 67.1092 120.001C68.4857 120.756 69.8326 120.415 70.9723 119.083C72.0231 117.868 71.9787 116.728 70.8095 114.966C71.2239 114.67 71.4015 113.915 72.0675 114.004C73.074 114.092 72.9852 113.337 73.1184 112.701C73.5772 115.721 73.37 118.742 73.1628 121.763C73.074 122.681 72.5412 122.814 71.7419 122.814C68.7965 122.607 65.9844 122.103 63.1722 121.644Z" fill="#AED6FA"/>
<path d="M51.1094 90.1042C49.0077 94.8426 46.7431 99.5366 44.9818 104.453C44.227 104.66 43.5165 104.66 42.8061 104.245C42.7173 104.157 42.6877 104.038 42.5989 103.949C42.5989 102.898 42.5989 101.847 42.5989 100.81C43.1909 99.8475 42.5101 98.6777 43.1021 97.7004C43.1465 98.9591 43.1909 100.173 43.2205 101.432C43.2205 101.639 43.2205 101.847 43.2205 102.098C43.2649 102.217 43.2649 102.35 43.3093 102.468C43.3537 102.35 43.4277 102.217 43.4721 102.098C43.8422 101.595 44.0642 101.003 44.1382 100.425C45.6923 96.7824 47.276 93.1693 49.0817 89.6451C49.8809 89.4822 50.6062 89.4378 51.1094 90.1042Z" fill="#DAF5FB"/>
<path d="M39.8607 91.274C39.8163 95.1684 39.7719 99.0776 39.7719 103.016C39.7719 103.475 40.1124 103.979 39.2687 104.023C38.425 104.068 38.3954 103.564 38.3954 102.928C38.3954 101.047 38.3954 99.1516 38.3954 97.271C38.3954 95.8495 38.4399 94.4576 38.3954 93.0361C38.3954 92.6955 38.3954 92.192 37.8034 92.6215C37.1374 92.5326 36.5897 92.8732 36.0865 93.2434C34.7396 94.1614 34.6212 94.117 34.2364 92.4882C34.2808 91.2296 35.0356 90.3855 35.9089 89.6007C36.1161 89.3934 36.5749 89.0973 36.6637 89.1861C37.7886 89.8969 38.5435 88.8159 39.4759 88.6826L39.5203 88.7715L39.6091 88.7271C39.6979 89.2305 39.7719 89.6896 39.8607 90.193C39.6979 90.5188 39.6979 90.9038 39.8607 91.274Z" fill="#F7F9F9"/>
<path d="M65.4811 107.088C67.8345 107.459 68.0417 105.371 68.6189 104.112C69.5366 102.098 70.7502 100.218 71.6383 98.1595C72.0971 97.1081 72.3931 96.1457 72.3931 95.0499C72.3931 94.5464 72.2747 93.9986 72.6892 93.5395C72.9408 96.2641 72.2303 98.9443 72.3931 101.639C72.5115 103.313 72.6003 104.956 72.6448 106.629C72.6892 107.222 72.7336 107.977 71.8899 107.888C69.7586 107.725 67.6124 107.385 65.4811 107.088Z" fill="#076D9C"/>
<path d="M114.28 91.6145C115.878 90.3559 116.589 88.4753 117.714 86.8761C119.134 84.8623 120.644 82.8485 121.784 80.6273C121.784 83.2631 121.739 85.9136 121.739 88.5494C121.739 89.0973 121.488 89.423 121.029 89.6007C119.016 90.3559 117.047 91.0667 115.035 91.8219C114.739 91.9551 114.398 92.118 114.28 91.6145Z" fill="#076D9C"/>
<path d="M49.1261 89.6007C47.3204 93.1249 45.6923 96.7231 44.1826 100.381C43.8422 100.04 43.7682 99.6699 43.7682 99.2552C43.8126 96.4862 43.8126 93.7172 43.8866 90.9482C43.8866 90.4892 43.931 90.1486 43.6349 89.7784C43.6349 89.6599 43.6794 89.5711 43.7978 89.5711C44.9226 89.5267 46.0623 89.4822 47.1872 89.4822C47.8384 89.4822 48.5045 89.5267 49.1261 89.6007Z" fill="#0BCFF7"/>
<path d="M82.961 103.564C83.3754 100.247 83.0794 96.9008 83.0498 93.5839C83.0498 93.2137 82.8426 92.7399 82.591 92.4586C81.8805 91.5405 82.2209 91.1555 83.183 90.8297C85.2403 90.119 85.2403 90.0745 85.1959 92.3401C85.1959 94.9759 85.1071 97.6708 85.2403 100.351C85.3587 102.143 85.0183 103.401 82.961 103.564Z" fill="#03ADFB"/>
<path d="M84.3079 120.771C84.1007 119.305 84.7223 118.165 85.566 117.128C86.4096 116.165 87.2385 116.254 87.9933 117.246C89.207 119.009 88.5853 122.577 86.824 123.747C85.862 124.369 84.8111 123.865 84.3967 122.488C84.1747 121.94 84.1007 121.304 84.3079 120.771Z" fill="#FCAC03"/>
<path d="M75.4125 102.646C75.4125 100.928 75.4569 99.2108 75.4125 97.4931C75.3681 95.8939 76.1674 94.8574 77.2922 93.9245C78.2543 93.1693 78.7575 93.4211 78.9647 94.5464C78.9647 96.1012 78.9647 97.6856 78.8759 99.2404C78.8611 101.091 77.0998 102.735 75.4125 102.646Z" fill="#F7F9F9"/>
<path d="M56.719 90.5188C55.5941 93.7024 53.8624 96.6047 52.4859 99.655C52.1159 100.499 51.7755 102.039 50.4286 101.328C49.3333 100.78 50.2214 99.6995 50.5914 98.8999C51.7163 96.3826 52.8115 93.9097 53.9512 91.4368C54.2028 90.9334 54.4544 90.3855 55.0761 90.267C55.6681 90.3115 56.1713 90.4447 56.719 90.5188Z" fill="#DAF5FB"/>
<path d="M65.4367 115.558C64.9335 115.47 64.4303 115.144 63.8826 115.514C63.8826 114.092 63.8826 112.626 63.8826 111.19C66.8132 111.442 69.7586 111.649 72.6892 112.197C72.6892 112.449 72.8076 112.612 73.0592 112.701C72.9408 113.322 73.0592 114.078 72.0083 114.004C71.3423 113.959 71.2091 114.67 70.7503 114.966C68.5005 113.337 67.1092 113.515 65.4367 115.558Z" fill="#DAF5FB"/>
<path d="M109.04 111.531C109.085 109.68 109.381 108.392 110.461 107.414C111.379 106.615 112.178 106.792 112.77 107.784C113.732 109.413 113.273 112.404 111.808 113.693C110.89 114.537 109.751 114.196 109.247 112.893C109.085 112.375 109.085 111.708 109.04 111.531Z" fill="#FCAC03"/>
<path d="M34.2512 92.503C34.6212 94.1318 34.7544 94.1762 36.1013 93.2582C36.6045 92.888 37.1522 92.5918 37.8182 92.6363C38.4103 94.1466 38.2326 95.657 37.7738 97.1674C36.9746 97.8781 36.1013 98.3372 35.0948 97.7597C34.1328 97.2118 33.8812 96.2049 34.044 95.1536C34.2068 94.2651 33.8664 93.3322 34.2512 92.503Z" fill="#AED6FA"/>
<path d="M75.4125 102.646C77.085 102.735 78.8463 101.091 78.9352 99.2552C79.024 97.7004 78.9796 96.116 79.024 94.5612C79.3644 97.3747 79.394 100.144 79.024 102.913C78.8611 104.038 78.2247 105.297 76.8926 105.134C75.6641 105.001 75.2053 103.86 75.4125 102.646Z" fill="#6FB0E8"/>
<path d="M43.7681 89.5267C43.6497 89.5711 43.6053 89.6451 43.6053 89.734C43.5165 89.8524 43.3981 89.9857 43.3093 90.1042C42.8949 92.6215 43.3093 95.1387 43.0577 97.656C42.4657 98.6185 43.1465 99.7883 42.5545 100.766C42.5101 97.0341 42.3917 93.3026 42.5101 89.5711C42.6285 87.883 43.3833 89.9413 43.7681 89.5267Z" fill="#AED6FA"/>
<path d="M89.0442 89.1861C88.9998 92.118 88.9554 95.0647 88.9258 97.9966C88.6149 95.0499 88.4521 92.118 89.0442 89.1861Z" fill="#076D9C"/>
<path d="M37.7738 97.1081C38.2326 95.5978 38.3954 94.0874 37.8182 92.577C38.4102 92.1624 38.4102 92.6659 38.4102 92.9916C38.4102 94.4132 38.4102 95.8051 38.4102 97.2266C38.1882 97.197 37.981 97.1526 37.7738 97.1081Z" fill="#6FB0E8"/>
<path d="M43.7682 89.5267C44.893 88.9047 46.0327 89.2749 47.1576 89.4378C46.0771 89.4378 44.893 89.4822 43.7682 89.5267Z" fill="#6FB0E8"/>
<path d="M73.074 112.715C72.8224 112.626 72.704 112.464 72.704 112.212C73.1036 112.167 73.1036 112.419 73.074 112.715Z" fill="#AED6FA"/>
<path d="M110.372 82.2265C110.209 82.2265 110.032 82.2709 109.869 82.2709C110.002 81.9304 110.165 81.8859 110.372 82.2265Z" fill="#076D9C"/>
<path d="M100.737 96.6491C100.9 96.6491 101.077 96.6491 101.24 96.6491C101.077 96.9897 100.9 97.1526 100.737 96.6491Z" fill="#076D9C"/>
<path d="M121.739 78.7467C121.621 78.7023 121.488 78.6579 121.399 78.6283C121.577 78.4506 121.695 78.495 121.739 78.7467Z" fill="#076D9C"/>
<path d="M39.6091 88.6826L39.5203 88.7271L39.4759 88.6382C39.5795 88.5198 39.6091 88.5494 39.6091 88.6826Z" fill="#843365"/>
<path d="M42.6285 103.949C42.7173 104.038 42.7469 104.157 42.8357 104.245C42.6285 104.245 42.5545 104.157 42.6285 103.949Z" fill="#AED6FA"/>
<path d="M46.6543 114.018C46.6099 115.647 45.1447 117.039 43.4721 117.039C41.7552 116.995 40.29 115.484 40.3344 113.767C40.3788 112.093 41.7996 110.627 43.4426 110.657C45.1447 110.657 46.6987 112.286 46.6543 114.018ZM42.4213 115.307C43.0873 116.269 43.8866 115.973 44.523 115.395C45.3963 114.551 45.4407 113.589 44.6414 112.626C43.8866 111.753 42.9689 111.531 42.1697 112.419C41.252 113.426 41.3408 114.433 42.4213 115.307Z" fill="#071848"/>
<path d="M65.4367 115.558C67.1092 113.456 68.5005 113.337 70.765 114.966C71.9343 116.728 71.9787 117.854 70.9278 119.083C69.7586 120.43 68.4117 120.711 67.0648 120.001C65.5699 119.171 65.0223 117.705 65.4367 115.558ZM70.3062 117.202C70.2174 116.032 69.6846 115.188 68.4265 115.144C67.2572 115.099 66.5764 115.81 66.5468 116.995C66.458 118.046 67.5976 119.379 68.4709 119.26C69.5514 119.083 70.173 118.372 70.3062 117.202Z" fill="#071848"/>
<path d="M43.3538 90.1042C43.4426 89.9857 43.561 89.8524 43.6498 89.734C43.9458 90.0745 43.9014 90.4447 43.9014 90.9038C43.8126 93.6728 43.8126 96.4418 43.783 99.2108C43.783 99.6254 43.9014 100.055 44.1974 100.336C44.079 100.958 43.9014 101.506 43.5314 102.009C43.4426 102.009 43.3686 102.009 43.2798 102.009C43.2798 101.802 43.2798 101.595 43.2798 101.343C43.7682 97.656 43.3538 93.8801 43.3538 90.1042Z" fill="#6FB0E8"/>
<path d="M43.3538 90.1042C43.3538 93.8801 43.7682 97.6116 43.2354 101.343C43.191 100.084 43.1465 98.8702 43.1169 97.6116C43.3538 95.1387 42.9245 92.6214 43.3538 90.1042Z" fill="#69F9DA"/>
<path d="M43.2649 102.054C43.3537 102.054 43.4277 102.054 43.5165 102.054C43.4721 102.172 43.3981 102.306 43.3537 102.424C43.3093 102.306 43.2649 102.187 43.2649 102.054Z" fill="#69F9DA"/>
<path d="M42.4213 115.307C41.326 114.433 41.252 113.426 42.1252 112.419C42.9689 111.501 43.8422 111.753 44.597 112.626C44.523 114.048 42.8801 114.181 42.4213 115.307Z" fill="#F6A8A0"/>
<path d="M42.4213 115.307C42.8357 114.181 44.523 114.048 44.6414 112.626C45.4407 113.589 45.4406 114.551 44.523 115.396C43.8866 116.032 43.1021 116.314 42.4213 115.307Z" fill="#FCAC03"/>
<path d="M70.3062 117.202C70.1878 118.372 69.5514 119.083 68.4561 119.216C67.5384 119.334 66.4432 118.002 66.532 116.95C66.6208 115.78 67.2424 115.07 68.4117 115.099C69.6698 115.188 70.173 116.032 70.3062 117.202Z" fill="#FCAC03"/>
<path d="M100.678 42.6014C100.648 42.4089 100.678 42.2313 100.678 42.0239C100.086 39.9065 99.464 37.7742 98.3244 35.8492C98.2504 35.7307 98.1912 35.5975 98.132 35.4642C97.2587 34.2204 96.341 32.9913 95.231 31.9252C90.7167 27.705 85.4032 26.0466 79.2904 26.9498C77.011 27.2904 74.8649 28.0308 72.8668 29.1858C72.7928 29.2154 72.7188 29.2154 72.63 29.2598C72.2896 29.5115 71.9343 29.7485 71.6087 30.0002C71.6235 30.7258 70.9575 30.8887 70.543 31.17C69.7734 31.6735 69.2258 32.399 68.5745 32.9913C68.3821 33.1542 68.2341 33.3615 67.9529 33.2875C67.9085 33.3319 67.8789 33.3615 67.8345 33.3911C67.8789 33.7761 67.8641 34.1167 67.346 34.0723C65.4367 36.5007 64.2823 39.2697 63.7198 42.2609C63.6458 42.6014 63.7346 42.9716 63.5866 43.3122C63.4386 45.4741 63.4978 47.6064 63.9122 49.7387L64.1046 50.7456C64.1194 50.7752 64.1342 50.8196 64.149 50.8493C64.6079 52.4189 65.0963 53.9737 65.7771 55.4396C69.0926 62.5621 73.5328 69.5956 78.8316 75.4298C79.838 76.5256 80.9037 77.4881 81.999 78.495C82.1174 78.6135 82.2506 78.7319 82.4134 78.7467C82.5466 78.7615 82.6798 78.7023 82.7982 78.6283C84.5003 77.7398 85.5068 76.1554 86.602 74.6302C87.8157 72.9422 89.0146 71.2541 90.1691 69.5512C92.5076 66.1455 94.7573 62.6805 96.7259 59.0527C97.5843 57.4831 98.3836 55.8986 99.1236 54.2698C99.8193 52.7298 100.204 50.9825 100.589 49.3241C100.944 47.1178 101.137 44.867 100.678 42.6014ZM98.9608 47.4583C98.4428 52.1079 96.4447 56.2244 94.0765 60.178C92.2856 63.1247 90.3763 65.9974 88.3189 68.7516C86.4096 71.3133 84.7075 73.9047 82.4874 76.2146C82.4578 76.2443 82.3986 76.3035 82.3542 76.3035C82.3098 76.3035 82.2506 76.2739 82.2062 76.2294C79.9268 74.26 78.1359 71.6983 76.345 69.2847C74.4949 66.7674 72.7188 64.1761 71.0907 61.5107C69.4182 58.8009 67.9381 55.9875 66.8132 52.9964C65.2591 48.8947 64.7411 44.7189 66.1028 40.4692C68.1305 34.1759 73.4292 29.5264 80.1636 28.7416C81.0369 28.6379 81.9101 28.6083 82.813 28.6527C83.2126 28.6231 83.6419 28.6231 84.0267 28.7416C86.3948 28.8748 88.5706 29.6448 90.6279 30.8146C92.5816 31.9252 94.2541 33.3911 95.5862 35.2273C96.9775 37.1671 98.132 39.2549 98.5908 41.6538C99.1384 43.5639 99.1828 45.5185 98.9608 47.4583Z" fill="#071848"/>
<path d="M82.3986 74.4377C82.369 74.4525 82.2358 76.2294 82.1914 76.2443C81.555 75.6668 80.5633 74.7339 79.5864 73.5197C76.493 69.6993 73.6217 65.7161 71.0463 61.5255C69.3738 58.8157 67.8937 56.0023 66.7688 53.0112C65.2147 48.9095 64.6967 44.7337 66.0584 40.484C68.0861 34.1907 73.3848 29.5412 80.1193 28.7564C80.9925 28.6527 81.8658 28.6231 82.7686 28.6675C82.7982 28.8008 82.7982 28.9489 82.8574 29.0821C83.0942 29.7189 83.0646 29.7781 82.3542 29.7929C81.9102 29.8077 81.4957 29.8077 81.0961 30.015H81.0813C80.7261 30.0298 80.3561 30.0002 80.0157 30.0594C77.9139 30.4592 75.8862 31.1108 74.0213 32.2361C71.7567 33.5836 70.0102 35.405 68.6485 37.6113C67.6421 39.2253 66.9612 40.9874 66.606 42.868C66.3692 44.1266 66.2212 45.4149 66.3396 46.6883C66.5764 49.0575 67.2425 51.3379 68.1749 53.5294C68.3377 53.9292 68.4265 54.3735 68.7818 54.6992C69.4774 56.4021 70.3951 57.9717 71.3275 59.5413C73.4736 63.1544 75.8714 66.5897 78.4764 69.877C79.4532 71.106 80.3561 72.4091 81.4809 73.5197C81.5549 73.6825 82.3098 74.2748 82.3986 74.4377Z" fill="#F7F9F9"/>
<path d="M81.777 73.9639C81.0813 73.5937 82.295 72.4091 82.6206 71.9797C83.8047 70.3657 85.0332 68.7961 86.1728 67.1376C88.6446 63.5838 91.1164 60.03 93.3809 56.3281C94.0025 55.3212 94.5946 54.2698 95.083 53.1889C95.8971 51.3676 96.4595 49.5018 96.7111 47.5028C96.8739 46.1553 96.9035 44.8226 96.7111 43.4899C96.4151 41.328 95.7194 39.3142 94.5206 37.4929C94.4466 37.3892 94.2986 37.2559 94.4762 37.1079C94.639 36.9598 94.8018 37.0338 94.8906 37.2115C95.2162 37.715 95.5714 38.2184 95.8527 38.7515C96.3411 39.6103 96.6223 40.558 96.9183 41.5057C97.0367 41.8907 97.3327 41.8907 97.5992 41.6094C97.7176 41.4761 97.762 41.2688 97.8508 41.1059C98.206 41.6242 98.1468 42.2905 98.4132 42.8532C98.428 43.179 98.428 43.4751 98.4576 43.8009C98.6056 45.0891 98.5464 46.3626 98.354 47.6212C97.8804 50.7604 96.6963 53.6331 95.2162 56.4169C94.0913 58.564 92.7889 60.5927 91.442 62.5917C89.7843 65.0349 88.0378 67.3894 86.2172 69.6845C85.0184 71.1949 83.8787 72.7349 82.6946 74.2453C82.6058 74.3489 82.5318 74.4526 82.3986 74.4378C82.2654 74.4081 82.2062 74.2453 82.1322 74.1564C82.0286 74.0676 81.8954 74.038 81.777 73.9639Z" fill="#843365"/>
<path d="M82.3838 74.4525C82.9906 73.875 83.3903 73.3124 84.0859 72.4239C84.7963 71.5206 85.4772 70.6026 86.2024 69.6993C88.0229 67.3893 89.7695 65.0497 91.4272 62.6065C92.774 60.6075 94.0765 58.564 95.2014 56.4317C96.6815 53.6479 97.8656 50.7752 98.3392 47.636C98.5316 46.3478 98.5908 45.0891 98.4428 43.8157C98.4132 43.4899 98.4132 43.1938 98.3984 42.868C98.4724 42.483 98.3096 42.0536 98.5316 41.6834C99.1384 43.5936 99.168 45.5482 98.946 47.488C98.428 52.1375 96.4299 56.254 94.0617 60.1928C92.2708 63.1396 90.3615 66.0122 88.3042 68.7664C87.5789 69.7437 87.2089 70.2176 86.5281 71.2245C85.566 72.6904 85.2404 73.1791 84.0563 74.4674C83.9823 74.5414 82.5762 76.2146 82.4874 76.2443C82.2802 76.2591 82.2062 75.9037 82.2062 75.7112C82.1766 75.4447 82.2506 74.5858 82.3838 74.4525Z" fill="#6FB0E8"/>
<path d="M98.5168 41.6538C98.2948 42.0239 98.4724 42.4386 98.3836 42.8384C98.132 42.2757 98.1764 41.6241 97.8212 41.0911H97.8064C97.7916 41.0022 97.7916 40.8986 97.7768 40.8245C97.3919 39.3586 96.7259 38.0111 95.9118 36.7524C94.6538 34.8127 93.0997 33.1838 91.2051 31.7919C89.7251 30.711 88.1266 29.9706 86.38 29.4671C85.7732 29.171 85.1368 29.0673 84.4707 28.9785C84.2783 28.9637 84.0267 29.0525 83.9675 28.7415C86.3356 28.8748 88.5114 29.6448 90.5687 30.8146C92.5224 31.9252 94.1949 33.3911 95.527 35.2273C96.9183 37.1967 98.0432 39.2697 98.5168 41.6538Z" fill="#AED6FA"/>
<path d="M83.9675 28.7712C84.0119 29.0673 84.2635 28.9785 84.4707 29.0081C85.1219 29.0969 85.788 29.2006 86.38 29.4967C86.3652 29.6004 85.9804 29.4671 86.2172 29.6892C86.4096 29.8521 86.7056 29.9262 86.9425 30.0446C87.6825 30.3852 88.4521 30.6813 89.133 31.2737C88.8666 31.3181 88.689 31.2737 88.5114 31.244C87.4605 30.9627 86.4688 30.5333 85.418 30.2963C83.9823 29.9706 82.5318 30.0594 81.0813 30.0594C81.4661 29.8521 81.9102 29.8373 82.3394 29.8373C83.0498 29.8225 83.0646 29.7633 82.8426 29.1266C82.7982 28.9933 82.7982 28.86 82.7538 28.7119C83.1534 28.6527 83.5827 28.6527 83.9675 28.7712Z" fill="#F6A8A0"/>
<path d="M67.9085 33.3023C68.9298 31.9696 70.1434 30.8739 71.5791 30.015C71.5939 30.7406 70.9279 30.9035 70.5135 31.1848C69.7438 31.6883 69.1962 32.4138 68.545 33.0061C68.3525 33.169 68.2045 33.3615 67.9085 33.3023Z" fill="#08457C"/>
<path d="M67.3164 34.0723C67.4348 33.8206 67.5829 33.5984 67.8049 33.4356C67.8345 33.8058 67.8197 34.1463 67.3164 34.0723Z" fill="#08457C"/>
<path d="M74.3765 69.7141C74.2137 69.6993 74.1249 69.6105 74.1397 69.4476C74.2877 69.4624 74.3765 69.566 74.3765 69.7141Z" fill="#08457C"/>
<path d="M92.552 75.652C92.478 75.652 92.4188 75.6668 92.3448 75.6668C92.404 75.5335 92.478 75.5187 92.552 75.652Z" fill="#076D9C"/>
<path d="M97.1255 74.26C97.0811 74.2452 97.0219 74.2304 96.9923 74.2156C97.0515 74.1416 97.1107 74.1564 97.1255 74.26Z" fill="#076D9C"/>
<path d="M81.0813 30.0299C82.5318 30.0447 83.9823 29.9558 85.418 30.2668C86.4836 30.5037 87.4753 30.9479 88.5114 31.2145C88.7038 31.2589 88.8666 31.3181 89.133 31.2441C88.4522 30.6518 87.6825 30.3556 86.9425 30.015C86.6909 29.8966 86.4096 29.8225 86.2172 29.6597C85.9656 29.4227 86.3652 29.5708 86.38 29.4672C88.1117 29.9706 89.7102 30.711 91.2051 31.792C93.0849 33.1542 94.6389 34.8127 95.9118 36.7525C96.7407 38.0111 97.3919 39.3586 97.7767 40.8246C97.5695 40.9726 97.5695 40.9726 97.8063 41.0911H97.8211C97.7323 41.254 97.6879 41.4613 97.5695 41.5946C97.3179 41.8759 97.0071 41.8611 96.8887 41.4909C96.6075 40.5432 96.3115 39.6104 95.823 38.7367C95.527 38.2184 95.1866 37.715 94.861 37.1967C94.7574 37.0486 94.6093 36.945 94.4465 37.0931C94.2837 37.2411 94.4317 37.3744 94.4909 37.4781C95.7046 39.3142 96.3707 41.3428 96.6815 43.4751C96.8739 44.8078 96.8443 46.1405 96.6815 47.488C96.4299 49.4722 95.8526 51.3676 95.0534 53.1741C94.5649 54.255 93.9729 55.2916 93.3513 56.3133C91.0719 60.0004 88.615 63.5542 86.1432 67.1228C85.0035 68.7517 83.7751 70.3361 82.591 71.9649C82.221 72.4832 81.9398 73.0755 81.4217 73.5049C80.3117 72.3943 79.394 71.0913 78.4171 69.8622C75.827 66.5749 73.4144 63.1396 71.2683 59.5265C70.3358 57.9569 69.4182 56.3873 68.7225 54.6845C68.8558 54.3143 68.5153 53.9737 68.6189 53.4999C68.9002 53.9441 69.3146 54.0922 69.6698 54.3587C69.6994 54.3143 69.7438 54.2698 69.7142 54.2698C68.7225 52.1079 67.9233 49.9016 67.6865 47.5176C67.4941 45.6074 67.6421 43.7417 68.0861 41.9055C68.6781 39.5511 69.9362 37.5373 71.5495 35.7752C74.0953 32.9914 77.4107 31.6587 81.0517 31.022C81.2737 30.9923 81.5549 31.0516 81.6141 30.7554C81.6437 30.5037 81.4809 30.3408 81.2589 30.2223C81.2293 30.1779 81.1553 30.0891 81.0813 30.0299ZM90.2579 56.6687L90.2727 56.6539C90.3467 56.6539 90.3911 56.6243 90.4059 56.5502H90.4207C90.5095 56.5502 90.5391 56.5206 90.5391 56.4318C92.4484 54.7289 93.9285 52.7595 94.6686 50.257C96.1486 45.252 95.1718 40.7505 91.738 36.871C89.1922 33.9983 85.9064 32.6952 82.0582 32.7544C79.0832 32.8285 76.419 33.7317 74.1101 35.5827C71.0907 38.0111 69.4626 41.1948 69.1518 45.0151C68.9446 47.4436 69.4034 49.7683 70.5135 51.9747C71.1499 53.2629 71.9935 54.3883 72.926 55.4841C72.9556 55.5729 73 55.6914 73.0592 55.7506C74.1693 57.0092 75.4274 58.0902 76.9667 58.8306C78.2543 59.4525 79.616 59.8967 81.0369 60.03C83.8047 60.2817 86.3504 59.6154 88.6446 58.0458C89.1478 57.7052 89.7694 57.5127 90.0211 56.8612L90.0359 56.8316C90.1247 56.8464 90.1543 56.8316 90.1395 56.7427L90.1691 56.7279C90.2283 56.7871 90.2579 56.7575 90.2579 56.6687ZM81.6881 63.0804C81.6881 63.5394 81.8954 63.8355 82.2654 63.8503C82.665 63.8503 82.9906 63.5986 82.9906 63.1396C82.9906 62.725 82.7094 62.4881 82.295 62.4881C81.9102 62.5029 81.7029 62.7842 81.6881 63.0804ZM81.6733 67.2265C81.703 67.5967 81.8806 67.9224 82.2802 67.9076C82.6502 67.8928 82.9758 67.6855 82.9758 67.2265C82.9758 66.7822 82.7094 66.5749 82.295 66.5749C81.8954 66.5749 81.6882 66.8267 81.6733 67.2265Z" fill="#F44155"/>
<path d="M81.0665 30.0298C81.1553 30.1039 81.2145 30.1779 81.3033 30.2223C81.5253 30.3408 81.7029 30.5037 81.6585 30.7554C81.6141 31.0812 81.3181 30.9923 81.0961 31.0219C77.4551 31.6587 74.1545 32.9765 71.5939 35.7752C69.9806 37.5521 68.7077 39.5511 68.1305 41.9055C67.6717 43.7416 67.5385 45.6074 67.7309 47.5176C67.9529 49.9164 68.7521 52.1227 69.7586 54.2698C69.7586 54.2846 69.7438 54.2994 69.7142 54.3587C69.3738 54.0921 68.9593 53.9441 68.6633 53.4998C68.5597 53.9737 68.9001 54.2846 68.7669 54.6844C68.4265 54.3587 68.3229 53.9293 68.1601 53.5146C67.2276 51.3231 66.5616 49.0428 66.3248 46.6735C66.2064 45.3853 66.3544 44.1118 66.5912 42.8532C66.9316 40.9874 67.6125 39.2105 68.6337 37.5965C69.9954 35.3902 71.7567 33.5836 74.0065 32.2214C75.8714 31.096 77.8991 30.4444 80.0008 30.0446C80.3412 30.015 80.7113 30.0446 81.0665 30.0298Z" fill="#F6A8A0"/>
<path d="M69.8326 30.5333C69.8477 30.5333 69.8627 30.5483 69.8777 30.5634C69.8627 30.5483 69.8477 30.5483 69.8326 30.5333Z" fill="#03ADFB"/>
<path d="M97.8063 41.1059C97.5843 40.9874 97.5843 40.9874 97.7767 40.8394C97.7915 40.9134 97.7915 41.0022 97.8063 41.1059Z" fill="#843365"/>
<path d="M72.8964 55.5285C71.9639 54.4327 71.1499 53.3221 70.4839 52.0191C69.3738 49.8127 68.9298 47.488 69.1222 45.0595C69.4182 41.2095 71.0759 38.0259 74.0805 35.6271C76.3894 33.7761 79.0684 32.8433 82.0286 32.7988C85.8916 32.71 89.1922 34.0279 91.7084 36.9153C95.1274 40.7949 96.119 45.2816 94.639 50.3014C93.8989 52.7891 92.4188 54.7733 90.5095 56.4762C90.4799 56.5058 90.4207 56.565 90.3911 56.5946H90.3763C90.3467 56.6242 90.2875 56.6686 90.2431 56.6983L90.2283 56.7131C90.1987 56.7427 90.1395 56.7871 90.1099 56.8167L90.0803 56.8315C90.0507 56.8611 90.0063 56.876 89.9767 56.9204L89.9619 56.95C89.7102 56.9648 89.5474 57.1425 89.3402 57.2461C86.6909 58.9046 83.8491 59.6154 80.7409 59.2452C78.3135 58.9638 76.1082 58.1494 74.1693 56.6094C73.7549 56.254 73.4144 55.7654 72.8964 55.5285ZM93.3809 44.9559C93.3809 44.8374 93.4105 44.7041 93.3957 44.5857C92.7148 40.4247 90.6279 37.3003 86.7057 35.5382C84.6631 34.635 82.5466 34.324 80.3413 34.8275C80.2229 34.8423 80.0897 34.8571 79.9712 34.8719C71.9195 36.5007 68.2785 46.0072 73.1332 52.7743C73.8289 53.8256 74.7021 54.714 75.7382 55.3804C79.4828 57.8236 83.4347 58.0902 87.4161 56.1208C91.3531 54.1662 93.3069 50.8345 93.4697 46.4514C93.5585 46.2885 93.5585 46.1108 93.4697 45.948C93.4253 45.6222 93.3957 45.2964 93.3809 44.9559Z" fill="#071848"/>
<path d="M72.8964 55.5285C73.4144 55.7654 73.7548 56.2392 74.2137 56.5946C76.1526 58.1346 78.3579 58.9342 80.7853 59.2304C83.8787 59.5857 86.7501 58.8602 89.3846 57.2313C89.5918 57.1129 89.7546 56.95 90.0063 56.9352C89.7546 57.5719 89.1182 57.7792 88.6298 58.1198C86.3356 59.6894 83.7899 60.3557 81.0221 60.104C79.5864 59.9707 78.2395 59.5413 76.9518 58.9046C75.4421 58.1642 74.1693 57.0833 73.0444 55.8246C72.9556 55.7358 72.926 55.6321 72.8964 55.5285Z" fill="#843365"/>
<path d="M81.6881 63.0803C81.7029 62.7546 81.9102 62.488 82.295 62.488C82.6946 62.488 82.9906 62.725 82.9906 63.1396C82.9906 63.5986 82.6502 63.8503 82.2654 63.8503C81.8954 63.8503 81.6881 63.5542 81.6881 63.0803Z" fill="#F7F9F9"/>
<path d="M81.6733 67.2265C81.6881 66.8415 81.8805 66.5749 82.2802 66.5749C82.6798 66.5749 82.961 66.797 82.961 67.2265C82.961 67.6855 82.6354 67.878 82.2654 67.9076C81.8954 67.9076 81.7177 67.5966 81.6733 67.2265Z" fill="#F7F9F9"/>
<path d="M90.0063 56.876C90.0359 56.8463 90.0803 56.8315 90.1099 56.7871C90.1247 56.876 90.0951 56.9056 90.0063 56.876Z" fill="#843365"/>
<path d="M90.4207 56.5502C90.4503 56.5206 90.5095 56.4613 90.5391 56.4317C90.5391 56.5206 90.4947 56.5502 90.4207 56.5502Z" fill="#843365"/>
<path d="M90.2875 56.6538C90.3171 56.6242 90.3763 56.5798 90.4207 56.5502C90.4059 56.639 90.3467 56.6686 90.2875 56.6538Z" fill="#843365"/>
<path d="M90.1543 56.7723C90.1839 56.7427 90.2431 56.6983 90.2727 56.6687C90.2579 56.7575 90.2283 56.7871 90.1543 56.7723Z" fill="#843365"/>
<path d="M73.1184 52.7891C68.2637 46.0368 71.9047 36.5303 79.9564 34.8867C80.0748 34.8719 80.2081 34.8571 80.3265 34.8423C81.2737 34.7238 82.1766 35.094 83.1238 35.0496C83.7751 35.0348 84.4115 35.2421 85.0036 35.4198C87.1645 36.0417 89.059 37.1375 90.5391 38.8699C90.2135 39.7436 89.9175 40.6172 89.4586 41.4465C88.9702 41.6094 88.8222 41.8611 89.2958 42.2609C89.2662 42.3942 89.2514 42.5422 89.1922 42.6755C88.6742 43.8897 87.8897 44.9559 87.1201 45.9924C86.9721 46.2145 86.7353 46.3182 86.4688 46.2293C85.7732 45.9628 85.0924 45.711 84.3819 45.5482C84.1599 45.5037 83.9971 45.4149 83.8787 45.2224C83.5383 44.6893 83.0646 44.3191 82.4134 44.2599C82.1322 44.2451 81.999 44.0082 81.8362 43.8157C80.6077 42.2165 79.3792 40.6172 78.1359 39.0328C78.0027 38.8403 77.8399 38.6774 77.6475 38.559C77.4255 38.4109 77.1739 38.4109 76.9519 38.6034C76.7298 38.8107 76.5966 39.0476 76.7446 39.329C76.8334 39.5215 76.9519 39.6992 77.0703 39.8621C78.2099 41.5353 79.2312 43.2678 80.2525 45.0003C80.5189 45.4593 80.6669 45.9035 80.5041 46.4366C80.4301 46.4514 80.3709 46.4514 80.3117 46.481C79.1868 47.3399 78.1211 48.2728 77.0555 49.1908C76.6706 49.5462 76.2858 50.0201 75.6938 50.0793C75.6938 49.7831 75.531 49.6054 75.2349 49.5906C75.0721 49.5758 74.9537 49.6795 74.8945 49.8276C74.7613 50.1089 74.9685 50.2422 75.1757 50.3606C75.2201 50.4939 75.3238 50.6272 75.1757 50.7604C74.4653 51.4564 73.9621 52.2708 73.1184 52.7891ZM82.0286 37.1819C81.8954 36.7377 81.6881 36.4563 81.2441 36.5896C80.9185 36.6932 80.6669 36.9746 80.7853 37.2411C81.0369 37.8038 80.9185 38.3517 80.9777 38.9144C80.9925 39.2401 81.1701 39.4326 81.4809 39.4474C81.8066 39.4623 81.925 39.1957 81.9398 38.944C81.9694 38.5738 81.9546 38.1888 81.9694 37.8186C81.9842 37.6705 81.851 37.4188 82.1322 37.3744C82.4282 37.3448 82.517 37.5817 82.517 37.8186C82.517 38.1888 82.5022 38.5738 82.517 38.944C82.5318 39.2105 82.6502 39.4326 82.9906 39.4178C83.331 39.4178 83.4939 39.2253 83.4939 38.9144C83.4939 38.3221 83.4939 37.7298 83.4939 37.1375C83.4939 36.7525 83.2422 36.5748 82.887 36.5303C82.4578 36.4711 82.2654 36.7821 82.0286 37.1819ZM74.0805 46.6439C73.8585 46.8512 73.3552 46.8957 73.6068 47.3547C73.8289 47.7545 74.2285 47.6064 74.5689 47.4583C75.1609 47.177 75.5162 46.7032 75.6346 46.0664C75.7382 45.4741 75.3089 44.8374 74.7761 44.7041C74.1545 44.5413 73.5772 44.8226 73.3848 45.3557C73.148 45.9184 73.3552 46.3033 74.0805 46.6439ZM87.3273 39.2698C87.3273 38.9736 87.1349 38.8255 86.8833 38.8255C86.6465 38.8255 86.528 39.018 86.5132 39.2401C86.4984 39.5363 86.6761 39.6399 86.9277 39.6547C87.2089 39.6547 87.2977 39.4622 87.3273 39.2698ZM75.2201 41.4909C74.9685 41.4761 74.8501 41.6242 74.8501 41.8315C74.8501 42.098 75.0129 42.1868 75.2497 42.1868C75.457 42.1868 75.6198 42.0684 75.6198 41.8463C75.6198 41.5797 75.4126 41.5057 75.2201 41.4909Z" fill="#F7F9F9"/>
<path d="M75.679 50.1237C76.271 50.0497 76.6558 49.5906 77.0406 49.2352C78.1063 48.2876 79.1572 47.3843 80.2968 46.5255C80.3413 46.4958 80.4153 46.4958 80.4893 46.481C80.5189 46.5699 80.5633 46.6291 80.5781 46.7179C80.8297 47.4435 81.3477 47.8878 82.0878 47.947C82.8278 48.021 83.5087 47.7841 83.8639 47.0437C83.9971 46.7624 84.1895 46.6883 84.4559 46.7624C84.7371 46.8364 84.8555 46.5995 85.1368 46.6735C85.7732 46.8808 86.306 46.8364 86.4836 46.2737C86.7501 46.3626 86.9869 46.2589 87.1349 46.0368C87.9045 44.9707 88.689 43.9341 89.207 42.7199C89.2514 42.5866 89.281 42.4386 89.3106 42.3053C89.5178 42.2164 89.7694 42.2313 89.8138 41.9499C89.8434 41.6982 89.651 41.6093 89.4734 41.5057C89.9322 40.6765 90.2135 39.8028 90.5539 38.9292C90.6723 39.0772 90.7611 39.2549 90.8943 39.3882C91.8416 40.4395 92.3152 41.713 92.774 43.0161C93.0108 43.6676 93.0256 44.3932 93.3809 45.0151C93.4105 45.3557 93.4253 45.6962 93.4697 46.0072C93.3069 46.1701 93.3069 46.3478 93.4697 46.5106C93.3217 50.9085 91.3679 54.2254 87.4161 56.18C83.4346 58.1494 79.4828 57.8829 75.7382 55.4396C74.6873 54.7585 73.8141 53.87 73.1332 52.8335C73.9621 52.33 74.4801 51.486 75.1757 50.8493C75.3089 50.716 75.2201 50.5827 75.1757 50.4495C75.3681 50.3902 75.5606 50.3162 75.679 50.1237ZM82.6354 52.9519C82.7686 52.7002 83.331 52.6558 83.0202 52.2412C82.7834 51.9154 82.4282 51.9894 82.1174 52.1375C81.2737 52.4929 80.8593 53.3962 81.1553 54.255C81.3625 54.7881 81.7769 55.0398 82.3394 54.9954C82.9018 54.9658 83.3902 54.7288 83.4495 54.0921C83.4939 53.5294 83.2274 53.1148 82.6354 52.9519ZM90.1543 47.5176C91.1015 47.5324 91.6196 46.7624 91.2495 45.8591C91.1607 45.6666 91.2051 45.4889 91.2051 45.2964C91.2051 44.7782 90.8351 44.6893 90.4503 44.6745C89.9323 44.6597 89.3254 44.6893 89.3254 45.1335C89.3106 45.7258 90.0359 45.5333 90.3319 45.5778C90.4799 45.5926 90.3615 45.948 90.3615 46.1553C90.3615 46.2737 90.3763 46.4218 90.3171 46.5106C90.1987 46.6587 90.0655 46.5847 89.947 46.4662C89.7398 46.2589 89.6066 46.4218 89.4734 46.5403C89.3254 46.6883 89.207 46.8808 89.3106 47.1178C89.4586 47.4879 89.8286 47.4879 90.1543 47.5176ZM87.2977 52.3596C87.2977 52.0783 87.1349 51.945 86.8833 51.9154C86.6612 51.9006 86.528 52.0339 86.528 52.256C86.528 52.5077 86.6908 52.7002 86.9425 52.715C87.1349 52.715 87.2829 52.5817 87.2977 52.3596ZM77.6031 51.9006C77.3515 51.9302 77.2183 52.1079 77.2035 52.3152C77.1887 52.5521 77.3663 52.715 77.5883 52.715C77.8251 52.715 77.9583 52.5521 77.9583 52.3004C77.9731 52.0635 77.8251 51.9154 77.6031 51.9006ZM89.3994 50.3754C89.6066 50.3606 89.7842 50.2718 89.799 50.0497C89.8286 49.7535 89.577 49.6647 89.3402 49.635C89.1478 49.6202 89.0442 49.7535 89.0146 49.9608C89.0146 50.2273 89.1626 50.331 89.3994 50.3754Z" fill="#AED6FA"/>
<path d="M93.3809 44.9559C93.0256 44.3339 93.0108 43.6084 92.774 42.9568C92.3152 41.6538 91.8416 40.3803 90.8943 39.329C90.7759 39.1957 90.6723 39.0328 90.5539 38.8699C89.0738 37.1226 87.1793 36.0417 85.0183 35.4198C84.4115 35.2569 83.7899 35.0348 83.1386 35.0496C82.1914 35.0792 81.2885 34.7238 80.3412 34.8423C82.5466 34.3388 84.6779 34.635 86.7056 35.553C90.6279 37.3003 92.7 40.4395 93.3957 44.6005C93.4105 44.7041 93.3809 44.8374 93.3809 44.9559Z" fill="#6FB0E8"/>
<path d="M93.4697 46.4662C93.3216 46.3033 93.3068 46.1257 93.4697 45.9628C93.5289 46.1257 93.5289 46.2885 93.4697 46.4662Z" fill="#6FB0E8"/>
<path d="M87.7269 46.1256C87.7565 46.3478 87.6233 46.4958 87.2829 46.6439C87.1941 46.6735 87.0905 46.6883 87.0017 46.6883C86.4688 46.6587 84.6927 46.7772 84.4411 46.7179C84.1747 46.6735 83.9823 46.7179 83.8491 46.9993C83.4938 47.7397 82.8278 47.9766 82.073 47.9026C81.3329 47.8285 80.8149 47.3991 80.5633 46.6735C80.5633 46.6587 80.5485 46.6439 80.5485 46.5995C80.5189 46.4958 80.5041 46.3774 80.5337 46.2737C80.6373 45.8147 80.4893 45.4149 80.2524 44.9855C79.246 43.253 78.2099 41.5205 77.0702 39.8472C76.9518 39.6843 76.8482 39.4918 76.7446 39.3142C76.5966 39.018 76.7446 38.7959 76.9518 38.5886C77.1739 38.3813 77.4255 38.3961 77.6475 38.5442C77.8399 38.6626 78.0027 38.8403 78.1359 39.018C79.3644 40.6172 80.5929 42.2164 81.8361 43.8009C81.9842 44.0082 82.1322 44.2155 82.4134 44.2451C83.0646 44.2895 83.5382 44.6597 83.8787 45.2076C83.9971 45.4149 84.1599 45.4889 84.3819 45.5333C85.0035 45.6666 86.4244 45.5037 87.2237 45.6222C87.4901 45.6962 87.6825 45.8739 87.7269 46.1256ZM81.1701 44.4228C81.1257 44.3339 81.0517 44.2599 81.0221 44.1562C80.7853 43.5195 80.1932 43.1345 79.8972 42.5274C79.8676 42.483 79.7492 42.4237 79.6752 42.4386C79.5272 42.4682 79.5716 42.6014 79.6012 42.6903C79.8972 43.3418 80.2969 43.9785 80.7853 44.5116C80.8593 44.6005 80.9481 44.6597 81.0517 44.6005C81.0961 44.556 81.1109 44.4968 81.1701 44.4228Z" fill="#071848"/>
<path d="M82.0286 37.1819C82.2802 36.7969 82.4726 36.4711 82.9018 36.5452C83.2422 36.5896 83.7455 36.6784 83.7455 37.0634C83.7455 37.2115 83.8343 37.2707 83.7159 37.5225C83.5827 37.8038 82.9018 38.4553 82.9758 38.633C83.0646 38.87 83.9823 38.6478 83.9823 38.8848C83.9823 39.2253 83.3606 39.403 83.0202 39.4178C82.6798 39.4178 82.1618 39.1513 82.147 38.8848C82.1174 38.5146 82.5466 38.1888 82.5466 37.8186C82.5466 37.5669 82.5614 37.5521 82.2506 37.5817C81.9694 37.6113 81.999 37.6705 81.9842 37.8186C81.9546 38.1888 81.9842 38.5738 81.9546 38.944C81.925 39.1957 81.8214 39.4623 81.4957 39.4474C81.1701 39.4326 81.0221 39.2105 80.9925 38.9144C80.9777 38.6478 81.1553 37.9815 81.1109 37.7742C81.0813 37.5521 80.8149 37.7594 80.6669 37.4928C80.5485 37.2263 80.9333 36.708 81.2589 36.6192C81.6881 36.4563 81.8806 36.7525 82.0286 37.1819Z" fill="#071848"/>
<path d="M74.0805 46.6439C73.3552 46.3033 73.148 45.9183 73.3552 45.326C73.5476 44.793 74.1249 44.5116 74.7465 44.6745C75.2793 44.8078 75.7086 45.4445 75.6049 46.0368C75.5013 46.6735 75.1313 47.1474 74.5393 47.4287C74.2137 47.5768 73.814 47.7249 73.5772 47.3251C73.3552 46.8956 73.8584 46.8364 74.0805 46.6439Z" fill="#071848"/>
<path d="M87.3273 39.2698C87.2977 39.4919 87.2089 39.6696 86.9425 39.6548C86.6908 39.6399 86.4836 39.5511 86.528 39.2401C86.5428 39.0032 86.6612 38.8255 86.8981 38.8255C87.1349 38.8255 87.3125 38.9588 87.3273 39.2698Z" fill="#071848"/>
<path d="M75.2202 41.4909C75.4274 41.5205 75.6198 41.5797 75.6198 41.8463C75.6198 42.0684 75.457 42.172 75.2498 42.1869C75.0129 42.2017 74.8353 42.098 74.8501 41.8315C74.8501 41.6094 74.9537 41.4761 75.2202 41.4909Z" fill="#071848"/>
<path d="M75.679 50.1237C75.5606 50.331 75.383 50.3902 75.1609 50.3902C74.9537 50.2718 74.7613 50.1533 74.8797 49.8572C74.9537 49.7091 75.0721 49.6202 75.2201 49.6202C75.5014 49.6499 75.679 49.8127 75.679 50.1237Z" fill="#071848"/>
<path d="M89.4882 41.4613C89.651 41.5649 89.8582 41.6538 89.8286 41.9055C89.799 42.1868 89.5326 42.1868 89.3254 42.2609C88.837 41.8759 88.985 41.6241 89.4882 41.4613Z" fill="#071848"/>
<path d="M82.6354 52.952C83.2422 53.1148 83.5086 53.5295 83.4494 54.0921C83.3606 54.7141 82.887 54.951 82.3394 54.9954C81.7769 55.025 81.3625 54.7881 81.1553 54.255C80.8593 53.3962 81.2589 52.4781 82.1174 52.1375C82.4578 52.0043 82.7982 51.9154 83.0202 52.2412C83.3014 52.6706 82.7686 52.715 82.6354 52.952Z" fill="#071848"/>
<path d="M90.1543 47.5176C89.8139 47.4731 89.4586 47.488 89.281 47.1178C89.1626 46.8957 89.2958 46.7032 89.4438 46.5403C89.577 46.407 89.725 46.2589 89.9175 46.4662C90.0359 46.5847 90.1691 46.6735 90.2875 46.5107C90.3615 46.4218 90.0211 46.0664 90.0211 45.9332C90.0211 45.7259 90.4651 45.5778 90.3023 45.563C90.0211 45.5334 89.2958 45.711 89.2958 45.1187C89.2958 44.6745 89.9027 44.6449 90.4207 44.6597C90.8203 44.6745 91.1755 44.7634 91.1755 45.2816C91.1755 45.4741 91.1459 45.6518 91.2199 45.8443C91.6196 46.7624 91.0867 47.562 90.1543 47.5176Z" fill="#071848"/>
<path d="M87.2977 52.3597C87.2829 52.5966 87.1349 52.715 86.9277 52.715C86.6761 52.7002 86.5132 52.5225 86.5132 52.256C86.5132 52.0339 86.6465 51.9006 86.8685 51.9154C87.1349 51.945 87.2977 52.0783 87.2977 52.3597Z" fill="#071848"/>
<path d="M77.6031 51.9006C77.8399 51.9154 77.9731 52.0487 77.9731 52.3004C77.9731 52.5373 77.8251 52.715 77.6031 52.715C77.3811 52.715 77.2035 52.5669 77.2183 52.3152C77.2035 52.1079 77.3367 51.945 77.6031 51.9006Z" fill="#071848"/>
<path d="M89.3994 50.3754C89.1626 50.3458 89.0146 50.2126 89.0294 49.9608C89.0442 49.7683 89.1626 49.6202 89.355 49.6351C89.5918 49.6499 89.8287 49.7535 89.8139 50.0497C89.7991 50.2718 89.6066 50.3606 89.3994 50.3754Z" fill="#071848"/>
<path d="M81.1701 44.4228C81.1257 44.4968 81.0961 44.5561 81.0517 44.5857C80.9333 44.6597 80.8445 44.5857 80.7853 44.4968C80.2969 43.9638 79.912 43.327 79.6012 42.6755C79.5716 42.5867 79.5124 42.4534 79.6752 42.4238C79.7492 42.409 79.8676 42.4534 79.8972 42.5126C80.1932 43.1049 80.8001 43.5047 81.0221 44.1414C81.0517 44.2599 81.1109 44.3339 81.1701 44.4228Z" fill="#843365"/>
</svg>
